<?xml version="1.0" encoding="iso-8859-1"?>
<!-- Generator: Adobe Illustrator 19.0.0, SVG Export Plug-In . SVG Version: 6.00 Build 0)  -->
<svg version="1.1" id="Layer_1" xmlns="http://www.w3.org/2000/svg" xmlns:xlink="http://www.w3.org/1999/xlink" x="0px" y="0px"
	 viewBox="0 0 498 498" width="83.328px" height="83.328px"  style="enable-background:new 0 0 498 498;" xml:space="preserve">
<path style="fill:#8EA5A4;" d="M443,154.548c-7.2,7.2-19.2,7.2-26.4,0l-73.6-73.6c-7.2-7.2-7.2-19.2,0-26.4l49.6-48.8
	c7.2-7.2,19.2-7.2,26.4,0l73.6,73.6c7.2,7.2,7.2,19.2,0,26.4L443,154.548z"/>
<path style="fill:#728482;" d="M443,154.548l49.6-49.6c7.2-7.2,7.2-19.2,0-26.4l-56-56c-7.2-7.2-19.2-7.2-26.4,0l-49.6,49.6
	c-7.2,7.2-7.2,19.2,0,26.4l56,56C423.8,161.748,435.8,161.748,443,154.548z"/>
<path style="fill:#576063;" d="M169.4,492.148c-7.2,7.2-19.2,7.2-26.4,0L5.4,354.548c-7.2-7.2-7.2-19.2,0-26.4l312-312
	c7.2-7.2,19.2-7.2,26.4,0l137.6,137.6c7.2,7.2,7.2,19.2,0,26.4L169.4,492.148z"/>
<path style="fill:#3C4649;" d="M169.4,492.148l312-312c7.2-7.2,7.2-19.2,0-26.4L379,51.348c-7.2-7.2-19.2-7.2-26.4,0l-312,312
	c-7.2,7.2-7.2,19.2,0,26.4l103.2,103.2C150.2,499.348,162.2,499.348,169.4,492.148z"/>
<path style="fill:#F7B208;" d="M481.4,153.748l-137.6-137.6c-7.2-7.2-19.2-7.2-26.4,0l-108.8,108l164.8,164.8l108.8-108.8
	C488.6,172.948,488.6,160.948,481.4,153.748z"/>
<path style="fill:#F97803;" d="M481.4,153.748L379,51.348c-7.2-7.2-19.2-7.2-26.4,0l-108.8,108l129.6,129.6l108.8-108.8
	C488.6,172.948,488.6,160.948,481.4,153.748z"/>
<path style="fill:#F7B208;" d="M204.6,292.948l73.6-17.6c8.8-1.6,13.6-10.4,12-18.4c-1.6-8.8-10.4-13.6-18.4-12l-128.8,30.4l40,40
	l-73.6,17.6c-8.8,1.6-13.6,10.4-12,19.2c0.8,3.2,2.4,5.6,4,7.2c4,4,8.8,5.6,14.4,4l128.8-30.4L204.6,292.948z"/>
<path style="fill:#F97803;" d="M244.6,332.948l-26.4-26.4l-13.6-13.6l73.6-17.6c8-1.6,12.8-9.6,12-16.8c-1.6,0-3.2,0-5.6,0
	l-128,30.4l26.4,26.4l13.6,13.6l-73.6,17.6c-8,1.6-12.8,9.6-12,16.8c1.6,0,3.2,0,5.6,0L244.6,332.948z"/>
<g>
</g>
<g>
</g>
<g>
</g>
<g>
</g>
<g>
</g>
<g>
</g>
<g>
</g>
<g>
</g>
<g>
</g>
<g>
</g>
<g>
</g>
<g>
</g>
<g>
</g>
<g>
</g>
<g>
</g>
</svg>
