<?xml version="1.0" encoding="iso-8859-1"?>
<!-- Generator: Adobe Illustrator 19.0.0, SVG Export Plug-In . SVG Version: 6.00 Build 0)  -->
<svg version="1.1" id="Capa_1" xmlns="http://www.w3.org/2000/svg" xmlns:xlink="http://www.w3.org/1999/xlink" x="0px" y="0px"
	 viewBox="0 0 57 57" width="83.328px" height="83.328px"  style="enable-background:new 0 0 57 57;" xml:space="preserve">
<path style="fill:#C7CAC7;" d="M44.305,57c-0.101,0-0.198-0.01-0.295-0.024c-0.534-0.074-0.967-0.565-0.91-1.101
	c0.057-0.537,0.479-0.933,1.012-0.899c0.059,0.004,0.116,0.012,0.174,0.02c0.003,0,0.006,0,0.009,0c1.67,0,3.011-1.344,3.011-2.995
	c0-1.654-1.346-3-3-3s-3,1.346-3,3c0,0.552-0.447,1-1,1s-1-0.448-1-1c0-2.757,2.243-5,5-5s5,2.243,5,5S47.062,57,44.305,57z"/>
<path style="fill:#EBBA16;" d="M10.051,41c-0.354,0-0.695-0.187-0.877-0.519c-3.179-5.784-0.511-15.992,1.28-18.89
	c0.291-0.469,0.909-0.615,1.376-0.325c0.47,0.291,0.615,0.907,0.325,1.376c-1.65,2.669-3.879,12.053-1.229,16.875
	c0.267,0.484,0.09,1.092-0.395,1.358C10.379,40.96,10.214,41,10.051,41z"/>
<path style="fill:#EBBA16;" d="M43.953,40.362c-0.163,0-0.328-0.04-0.48-0.124c-0.484-0.266-0.661-0.874-0.396-1.358
	c2.649-4.823,0.421-14.206-1.229-16.875c-0.29-0.47-0.145-1.086,0.325-1.376c0.467-0.29,1.085-0.145,1.376,0.325
	c1.791,2.898,4.459,13.106,1.282,18.89C44.649,40.175,44.307,40.362,43.953,40.362z"/>
<path style="fill:#556080;" d="M42.305,57h-30.75c-1.1,0-2-0.9-2-2v-1c0-1.1,0.9-2,2-2h30.75c1.1,0,2,0.9,2,2v1
	C44.305,56.1,43.405,57,42.305,57z"/>
<path style="fill:#FBD490;" d="M35.305,16c-5.583-9.167-2.038-16-3-16h-0.341h-3.659h-2.436h-3.659H21.87c-0.962,0,2.583,6.833-3,16
	c-6.498,10.669-6.583,18.979-3.92,24.27c2.071,4.114,3.585,5.865,7.775,7.99C23.697,48.753,24.78,49,25.87,49h2.435
	c1.09,0,2.173-0.247,3.145-0.74c4.19-2.126,5.704-3.876,7.775-7.99C41.888,34.979,41.803,26.669,35.305,16z"/>
<path style="fill:#EBBA16;" d="M28.495,29c0,0-5.134,5.127-4.889,11.181c0.115,2.852,2.073,5.209,4.451,5.01
	c0.943-0.079,1.897-0.519,2.592-1.693c1.086-1.837,0.777-4.381-0.583-5.933C28.786,36.107,27.386,33.393,28.495,29z"/>
<path style="fill:#47363D;" d="M38.055,52v-1c0-1.1-0.9-2-2-2h-18.75c-1.1,0-2,0.9-2,2v1H38.055z"/>
<g>
</g>
<g>
</g>
<g>
</g>
<g>
</g>
<g>
</g>
<g>
</g>
<g>
</g>
<g>
</g>
<g>
</g>
<g>
</g>
<g>
</g>
<g>
</g>
<g>
</g>
<g>
</g>
<g>
</g>
</svg>
