<?xml version="1.0" encoding="iso-8859-1"?>
<!-- Generator: Adobe Illustrator 16.0.0, SVG Export Plug-In . SVG Version: 6.00 Build 0)  -->
<!DOCTYPE svg PUBLIC "-//W3C//DTD SVG 1.1//EN" "http://www.w3.org/Graphics/SVG/1.1/DTD/svg11.dtd">
<svg version="1.1" id="Capa_1" xmlns="http://www.w3.org/2000/svg" xmlns:xlink="http://www.w3.org/1999/xlink" x="0px" y="0px"
	 width="83.328px" height="83.328px" viewBox="0 0 83.328 83.328" style="enable-background:new 0 0 83.328 83.328;"
	 xml:space="preserve">
<g>
	<path d="M71.217,69.907l-12.604,7.284L48.86,60.318l12.605-7.284L71.217,69.907z M72.606,72.252l-12.769,7.393
		c2.017,3.584,6.496,4.704,10.08,2.688C73.279,80.315,74.623,75.836,72.606,72.252z M64.768,14.685
		C56.704,0.573,38.56-4.131,24.448,3.933c-1.12,0.672-2.24,1.344-3.36,2.24c0.224,0,0.224,0,0.448,0.224
		c1.344,0.672,2.912,1.344,4.704,2.24c0.224-0.224,0.447-0.224,0.672-0.448c11.647-6.72,26.88-2.688,33.602,8.96
		c6.72,11.647,2.688,26.879-8.962,33.601c-11.646,6.722-26.879,2.688-33.6-8.958c-2.464-4.258-3.584-8.961-3.36-13.439
		c-1.568-3.809-2.016-8.062-1.344-12.544c-4.704,8.735-4.704,19.487,0.448,28.446c8.063,14.111,26.208,18.815,40.32,10.752
		C68.126,46.717,73.055,28.797,64.768,14.685z M34.079,42.236c0.896,0.447-8.736-10.304-8.736-20.832
		c2.016,8.959,12.096,17.92,13.888,22.847c6.721-25.312-12.319-32.03-21.056-36.289C10.783,28.797,23.999,37.532,34.079,42.236z
		 M44.382,42.461c6.496,0.672,15.904,0,18.369-12.993c-5.823-0.225-17.473-2.465-21.505,12.544
		c2.464-2.017,10.304-3.584,13.888-7.84C52,39.771,43.935,42.461,44.382,42.461z"/>
</g>
<g>
</g>
<g>
</g>
<g>
</g>
<g>
</g>
<g>
</g>
<g>
</g>
<g>
</g>
<g>
</g>
<g>
</g>
<g>
</g>
<g>
</g>
<g>
</g>
<g>
</g>
<g>
</g>
<g>
</g>
</svg>
